<svg version="1.1" id="Layer_1" xmlns="http://www.w3.org/2000/svg" xmlns:xlink="http://www.w3.org/1999/xlink" x="0px" y="0px"
	 width="100%" viewBox="0 0 225 225" enable-background="new 0 0 225 225" xml:space="preserve">
<path fill="#FFFFFF" opacity="1.000000" stroke="none" 
	d="
M1.000000,87.000000 
	C1.000000,58.000004 1.000000,29.500010 1.000000,1.000011 
	C75.999977,1.000008 150.999954,1.000008 225.999954,1.000004 
	C225.999969,75.999969 225.999969,150.999939 225.999985,225.999939 
	C151.000046,225.999954 76.000092,225.999954 1.000068,225.999969 
	C1.000000,179.833328 1.000000,133.666672 1.000000,87.000000 
M87.508507,12.980210 
	C86.008842,12.980210 84.509186,12.980182 83.009521,12.980214 
	C65.431694,12.980598 59.994083,18.387283 59.993942,35.866722 
	C59.993652,72.525124 59.993851,109.183533 59.993855,145.841934 
	C59.993858,162.004959 59.928642,178.168335 60.015160,194.330902 
	C60.080891,206.609192 66.033546,213.787628 77.153397,213.924850 
	C101.144333,214.220932 125.142395,214.138779 149.135544,213.953186 
	C158.111023,213.883759 164.044403,209.543701 165.777283,202.370438 
	C166.513641,199.322327 166.901047,196.113022 166.904999,192.976303 
	C166.972122,139.655884 167.015366,86.335213 166.912369,33.014900 
	C166.885910,19.321096 160.199722,12.994072 146.492615,12.983906 
	C127.163651,12.969570 107.834663,12.980234 87.508507,12.980210 
z"/>
<path fill="#030303" opacity="1.000000" stroke="none" 
	d="
M88.007095,12.980210 
	C107.834663,12.980234 127.163651,12.969570 146.492615,12.983906 
	C160.199722,12.994072 166.885910,19.321096 166.912369,33.014900 
	C167.015366,86.335213 166.972122,139.655884 166.904999,192.976303 
	C166.901047,196.113022 166.513641,199.322327 165.777283,202.370438 
	C164.044403,209.543701 158.111023,213.883759 149.135544,213.953186 
	C125.142395,214.138779 101.144333,214.220932 77.153397,213.924850 
	C66.033546,213.787628 60.080891,206.609192 60.015160,194.330902 
	C59.928642,178.168335 59.993858,162.004959 59.993855,145.841934 
	C59.993851,109.183533 59.993652,72.525124 59.993942,35.866722 
	C59.994083,18.387283 65.431694,12.980598 83.009521,12.980214 
	C84.509186,12.980182 86.008842,12.980210 88.007095,12.980210 
M159.996552,119.500000 
	C159.996552,90.072350 159.996552,60.644695 159.996552,31.159122 
	C128.618484,31.159122 97.718933,31.159122 66.655487,31.159122 
	C66.655487,86.130554 66.655487,140.864594 66.655487,195.744629 
	C97.823334,195.744629 128.833069,195.744629 159.996552,195.744629 
	C159.996552,170.440826 159.996552,145.470413 159.996552,119.500000 
M102.445007,204.608383 
	C102.082016,207.874649 103.180443,209.540924 106.829170,209.382431 
	C111.953835,209.159790 117.098297,209.220474 122.228661,209.362885 
	C125.523285,209.454330 126.029419,207.678024 125.958862,204.968903 
	C125.890045,202.326233 126.013184,199.922287 122.226547,200.021255 
	C116.930222,200.159668 111.625031,200.153183 106.328667,200.015305 
	C103.565147,199.943375 102.285522,201.000458 102.445007,204.608383 
M115.498611,24.468748 
	C118.159164,24.467861 120.840492,24.656696 123.469635,24.368877 
	C124.464027,24.260019 125.337936,23.050716 126.266762,22.343029 
	C125.979996,21.930384 125.693222,21.517736 125.406456,21.105091 
	C119.099060,21.105091 112.789970,21.032860 106.486084,21.181387 
	C105.517853,21.204199 104.573578,22.243860 103.618225,22.813238 
	C104.594620,23.365551 105.537773,24.307604 106.553894,24.394285 
	C109.195183,24.619604 111.868530,24.469160 115.498611,24.468748 
z"/>
<path fill="#FDFDFD" opacity="1.000000" stroke="none" 
	d="
M159.996552,120.000000 
	C159.996552,145.470413 159.996552,170.440826 159.996552,195.744629 
	C128.833069,195.744629 97.823334,195.744629 66.655487,195.744629 
	C66.655487,140.864594 66.655487,86.130554 66.655487,31.159122 
	C97.718933,31.159122 128.618484,31.159122 159.996552,31.159122 
	C159.996552,60.644695 159.996552,90.072350 159.996552,120.000000 
z"/>
<path fill="#DFDFDF" opacity="1.000000" stroke="none" 
	d="
M102.446320,204.184036 
	C102.285522,201.000458 103.565147,199.943375 106.328667,200.015305 
	C111.625031,200.153183 116.930222,200.159668 122.226547,200.021255 
	C126.013184,199.922287 125.890045,202.326233 125.958862,204.968903 
	C126.029419,207.678024 125.523285,209.454330 122.228661,209.362885 
	C117.098297,209.220474 111.953835,209.159790 106.829170,209.382431 
	C103.180443,209.540924 102.082016,207.874649 102.446320,204.184036 
z"/>
<path fill="#DFDFDF" opacity="1.000000" stroke="none" 
	d="
M115.013847,24.468700 
	C111.868530,24.469160 109.195183,24.619604 106.553894,24.394285 
	C105.537773,24.307604 104.594620,23.365551 103.618225,22.813240 
	C104.573578,22.243860 105.517853,21.204199 106.486084,21.181387 
	C112.789970,21.032860 119.099060,21.105091 125.406456,21.105091 
	C125.693222,21.517736 125.979996,21.930384 126.266762,22.343029 
	C125.337936,23.050716 124.464027,24.260019 123.469635,24.368877 
	C120.840492,24.656696 118.159164,24.467861 115.013847,24.468700 
z"/>
</svg>