<svg version="1.1" id="Layer_1" xmlns="http://www.w3.org/2000/svg" xmlns:xlink="http://www.w3.org/1999/xlink" x="0px" y="0px"
	 width="100%" viewBox="0 0 360 333" enable-background="new 0 0 360 333" xml:space="preserve">
<path fill="#FDFDFD" opacity="1.000000" stroke="none" 
	d="
M1.000000,115.000000 
	C1.000000,76.680313 1.000000,38.860630 1.000000,1.020471 
	C120.943062,1.020471 240.886124,1.020471 360.914612,1.020471 
	C360.914612,111.902969 360.914612,222.806015 360.914612,333.854553 
	C241.000122,333.854553 121.000092,333.854553 1.000000,333.854553 
	C1.000000,261.113983 1.000000,188.306992 1.000000,115.000000 
M276.850464,23.506826 
	C274.225220,23.176970 271.600830,22.569063 268.974548,22.560730 
	C245.503860,22.486263 222.032745,22.564150 198.561951,22.506628 
	C163.782074,22.421391 129.002350,22.269661 94.222618,22.130545 
	C81.578781,22.079969 76.087334,26.800201 76.050346,37.944881 
	C76.007034,50.993660 76.053375,64.042709 76.039642,77.091614 
	C75.962852,150.060104 75.918480,223.028702 75.760605,295.997009 
	C75.734154,308.222717 80.556328,313.417450 92.781456,313.421173 
	C116.083107,313.428223 139.384766,313.423431 162.686417,313.423401 
	C197.985321,313.423370 233.284225,313.427216 268.583130,313.420898 
	C280.163239,313.418854 284.623444,309.198029 285.157349,297.713165 
	C285.233948,296.065582 285.051086,294.407654 285.052551,292.754578 
	C285.127472,208.290344 285.214111,123.826096 285.281311,39.361847 
	C285.286407,32.930698 284.151062,27.002985 276.850464,23.506826 
z"/>
<path fill="#131313" opacity="1.000000" stroke="none" 
	d="
M277.195068,23.673717 
	C284.151062,27.002985 285.286407,32.930698 285.281311,39.361847 
	C285.214111,123.826096 285.127472,208.290344 285.052551,292.754578 
	C285.051086,294.407654 285.233948,296.065582 285.157349,297.713165 
	C284.623444,309.198029 280.163239,313.418854 268.583130,313.420898 
	C233.284225,313.427216 197.985321,313.423370 162.686417,313.423401 
	C139.384766,313.423431 116.083107,313.428223 92.781456,313.421173 
	C80.556328,313.417450 75.734154,308.222717 75.760605,295.997009 
	C75.918480,223.028702 75.962852,150.060104 76.039642,77.091614 
	C76.053375,64.042709 76.007034,50.993660 76.050346,37.944881 
	C76.087334,26.800201 81.578781,22.079969 94.222618,22.130545 
	C129.002350,22.269661 163.782074,22.421391 198.561951,22.506628 
	C222.032745,22.564150 245.503860,22.486263 268.974548,22.560730 
	C271.600830,22.569063 274.225220,23.176970 277.195068,23.673717 
M276.922729,267.500000 
	C276.922729,191.007660 276.924805,114.515335 276.918823,38.022999 
	C276.918335,31.657707 275.747772,30.457092 269.355072,30.455526 
	C210.194275,30.441036 151.033478,30.441431 91.872688,30.453833 
	C85.296280,30.455210 84.143082,31.676424 84.142845,38.409622 
	C84.139816,124.734398 84.140038,211.059174 84.142418,297.383942 
	C84.142616,304.444397 85.107124,305.409515 92.255981,305.412048 
	C118.253403,305.421265 144.250824,305.415466 170.248245,305.415405 
	C202.578369,305.415344 234.908493,305.416138 267.238617,305.414886 
	C276.590729,305.414551 276.922485,305.089386 276.922638,295.997284 
	C276.922760,286.831512 276.922729,277.665771 276.922729,267.500000 
M77.991280,119.500000 
	C77.991280,177.558731 77.991280,235.617462 77.991280,293.676208 
	C78.233025,293.675049 78.474762,293.673920 78.716507,293.672760 
	C78.716507,207.824570 78.716507,121.976387 78.716507,36.128201 
	C78.474747,36.127670 78.232986,36.127144 77.991226,36.126614 
	C77.991226,63.584412 77.991226,91.042206 77.991280,119.500000 
M283.007324,237.500000 
	C283.007324,172.108139 283.007324,106.716278 283.007324,41.324413 
	C282.766052,41.325439 282.524750,41.326466 282.283478,41.327492 
	C282.283478,125.508949 282.283478,209.690414 282.283478,293.871887 
	C282.524750,293.872772 282.766052,293.873657 283.007324,293.874573 
	C283.007324,275.416382 283.007324,256.958191 283.007324,237.500000 
M146.500000,307.992676 
	C188.223892,307.992676 229.947784,307.992676 271.671692,307.992676 
	C271.670197,307.758057 271.668701,307.523438 271.667206,307.288818 
	C210.821747,307.288818 149.976303,307.288818 89.130844,307.288818 
	C89.130089,307.523438 89.129341,307.758057 89.128586,307.992676 
	C107.919060,307.992676 126.709526,307.992676 146.500000,307.992676 
M159.499390,28.987238 
	C165.560135,28.987238 171.620895,28.987238 177.681641,28.987238 
	C177.672028,28.756866 177.662430,28.526495 177.652817,28.296124 
	C148.149628,28.296124 118.646431,28.296124 89.143242,28.296124 
	C89.143105,28.526484 89.142960,28.756842 89.142822,28.987202 
	C112.261765,28.987202 135.380722,28.987202 159.499390,28.987238 
M246.500000,28.987238 
	C254.891602,28.987238 263.283203,28.987238 271.674835,28.987238 
	C271.667847,28.756567 271.660858,28.525896 271.653900,28.295225 
	C242.149521,28.295225 212.645142,28.295225 183.140762,28.295225 
	C183.140518,28.525885 183.140259,28.756542 183.140015,28.987202 
	C203.926682,28.987202 224.713333,28.987202 246.500000,28.987238 
z"/>
<path fill="#FEFEFE" opacity="1.000000" stroke="none" 
	d="
M276.922729,268.000000 
	C276.922729,277.665771 276.922760,286.831512 276.922638,295.997284 
	C276.922485,305.089386 276.590729,305.414551 267.238617,305.414886 
	C234.908493,305.416138 202.578369,305.415344 170.248245,305.415405 
	C144.250824,305.415466 118.253403,305.421265 92.255981,305.412048 
	C85.107124,305.409515 84.142616,304.444397 84.142418,297.383942 
	C84.140038,211.059174 84.139816,124.734398 84.142845,38.409622 
	C84.143082,31.676424 85.296280,30.455210 91.872688,30.453833 
	C151.033478,30.441431 210.194275,30.441036 269.355072,30.455526 
	C275.747772,30.457092 276.918335,31.657707 276.918823,38.022999 
	C276.924805,114.515335 276.922729,191.007660 276.922729,268.000000 
z"/>
<path fill="#0D0D0D" opacity="1.000000" stroke="none" 
	d="
M77.991257,119.000000 
	C77.991226,91.042206 77.991226,63.584412 77.991226,36.126614 
	C78.232986,36.127144 78.474747,36.127670 78.716507,36.128201 
	C78.716507,121.976387 78.716507,207.824570 78.716507,293.672760 
	C78.474762,293.673920 78.233025,293.675049 77.991280,293.676208 
	C77.991280,235.617462 77.991280,177.558731 77.991257,119.000000 
z"/>
<path fill="#0E0E0E" opacity="1.000000" stroke="none" 
	d="
M283.007324,238.000000 
	C283.007324,256.958191 283.007324,275.416382 283.007324,293.874573 
	C282.766052,293.873657 282.524750,293.872772 282.283478,293.871887 
	C282.283478,209.690414 282.283478,125.508949 282.283478,41.327492 
	C282.524750,41.326466 282.766052,41.325439 283.007324,41.324413 
	C283.007324,106.716278 283.007324,172.108139 283.007324,238.000000 
z"/>
<path fill="#181818" opacity="1.000000" stroke="none" 
	d="
M146.000000,307.992676 
	C126.709526,307.992676 107.919060,307.992676 89.128586,307.992676 
	C89.129341,307.758057 89.130089,307.523438 89.130844,307.288818 
	C149.976303,307.288818 210.821747,307.288818 271.667206,307.288818 
	C271.668701,307.523438 271.670197,307.758057 271.671692,307.992676 
	C229.947784,307.992676 188.223892,307.992676 146.000000,307.992676 
z"/>
<path fill="#1C1C1C" opacity="1.000000" stroke="none" 
	d="
M158.999527,28.987221 
	C135.380722,28.987202 112.261765,28.987202 89.142822,28.987202 
	C89.142960,28.756842 89.143105,28.526484 89.143242,28.296124 
	C118.646431,28.296124 148.149628,28.296124 177.652817,28.296124 
	C177.662430,28.526495 177.672028,28.756866 177.681641,28.987238 
	C171.620895,28.987238 165.560135,28.987238 158.999527,28.987221 
z"/>
<path fill="#1C1C1C" opacity="1.000000" stroke="none" 
	d="
M246.000000,28.987221 
	C224.713333,28.987202 203.926682,28.987202 183.140015,28.987202 
	C183.140259,28.756542 183.140518,28.525885 183.140762,28.295225 
	C212.645142,28.295225 242.149521,28.295225 271.653900,28.295225 
	C271.660858,28.525896 271.667847,28.756567 271.674835,28.987238 
	C263.283203,28.987238 254.891602,28.987238 246.000000,28.987221 
z"/>
</svg>